/* XPM */
static char *arvkk_357ot[] = {
/* columns rows colors chars-per-pixel */
"50 50 151 2 ",
"   c None",
".  c #010100",
"X  c #130E03",
"o  c #161104",
"O  c #1A1305",
"+  c #131313",
"@  c #1E1C15",
"#  c #201704",
"$  c #2A1E06",
"%  c #2B210B",
"&  c #2C2412",
"*  c #27251F",
"=  c #2F2B1E",
"-  c #302B18",
";  c #1E1F20",
":  c #322D23",
">  c #403111",
",  c #5C430D",
"<  c #6A4D0F",
"1  c #765610",
"2  c #785711",
"3  c #7B5911",
"4  c #4A432A",
"5  c #444444",
"6  c #4B4A44",
"7  c #4D4D4C",
"8  c #514F48",
"9  c #56544E",
"0  c #5B584A",
"q  c #625E51",
"w  c #696558",
"e  c #746F5C",
"r  c #845F12",
"t  c #81660E",
"y  c #83690F",
"u  c #886B0F",
"i  c #856112",
"p  c #8B6514",
"a  c #846B13",
"s  c #8A6D11",
"d  c #866D18",
"f  c #896F18",
"g  c #946B16",
"h  c #8E7314",
"j  c #8B721A",
"k  c #927716",
"l  c #91771A",
"z  c #9C741A",
"x  c #A2771D",
"c  c #A67A1D",
"v  c #AA7D1E",
"b  c #8D7521",
"n  c #937A22",
"m  c #AD801C",
"M  c #AB8B1A",
"N  c #B5861C",
"B  c #B8871D",
"V  c #BB8A1E",
"C  c #B4931C",
"Z  c #BA971D",
"A  c #BB981E",
"S  c #A8812E",
"D  c #B68B24",
"F  c #BD8B20",
"G  c #B18728",
"H  c #BD9027",
"J  c #BF952E",
"K  c #BA8E31",
"L  c #BD9235",
"P  c #BC943B",
"I  c #C38F1F",
"U  c #C4901F",
"Y  c #C18E21",
"T  c #C59122",
"R  c #C89426",
"E  c #C39F20",
"W  c #C5962A",
"Q  c #C99629",
"!  c #C6982F",
"~  c #C9992F",
"^  c #C09435",
"/  c #C69830",
"(  c #CC9C33",
")  c #C79C38",
"_  c #CC9E3B",
"`  c #D09E35",
"'  c #C4A020",
"]  c #CDA03D",
"[  c #D2A037",
"{  c #D3A23A",
"}  c #8D8156",
"|  c #928453",
" . c #9B8C5C",
".. c #A69146",
"X. c #AB964A",
"o. c #AE984D",
"O. c #B19C4F",
"+. c #AA9353",
"@. c #A4945C",
"#. c #AA995E",
"$. c #B49E52",
"%. c #BAA354",
"&. c #BEA55E",
"*. c #A49564",
"=. c #AD9D65",
"-. c #B09F66",
";. c #B4A266",
":. c #B9A665",
">. c #BBA867",
",. c #BDAA69",
"<. c #CFA443",
"1. c #CDA548",
"2. c #D1A544",
"3. c #D2A648",
"4. c #D4A84B",
"5. c #C0A655",
"6. c #C9AB54",
"7. c #C4AC5D",
"8. c #CAAD58",
"9. c #D3AA50",
"0. c #DAAE51",
"q. c #C7B05C",
"w. c #CDB05E",
"e. c #CDB25D",
"r. c #CBB15F",
"t. c #D7B95F",
"y. c #C3AD61",
"u. c #C0AC69",
"i. c #C7B064",
"p. c #CAB060",
"a. c #CDB362",
"s. c #CBB366",
"d. c #CBB467",
"f. c #CBB466",
"g. c #CFB865",
"h. c #CBB468",
"j. c #CDB668",
"k. c #CFB869",
"l. c #D2B964",
"z. c #D8BB61",
"x. c #D4BD6B",
"c. c #DABF68",
"v. c #DABF68",
"b. c #D7C06E",
"n. c #DAC069",
"m. c #D9C26F",
"M. c #DDC672",
"N. c #DCC571",
"B. c #D9CEB6",
"V. c #DACFB8",
"C. c #DBD5C9",
/* pixels */
"                                        k k k k k k k k k k                                         ",
"                                k k k k k h h h h h h h k h k k h y                                 ",
"                            k k k h h h y y y y y y y y y y h h h M h y                             ",
"                        k k k h h a y h C A A A Z A Z Z A C h y y h h M M M                         ",
"                      k k h h y s C A A ' ' ' ' ' ' ' ' E E A A C h 3 h h a M                       ",
"                  k k h h y u C A A ' ' ' ' ' ' ' ' ' ' E E ' A Z Z Z h 3 M 3 y k                   ",
"                k k h y h C A ' C k C ' ' ' ' ' ' ' ' ' ' ' C h h C E Z Z h 3 M k k                 ",
"              k h h h C A E ' A h m h C ' ' ' ' ' ' ' ' ' C k N M h C E E Z C h h k k               ",
"            k k h s C E ' ' ' A p N c s C ' ' E ' ' ' ' C k N N 3 3 M Z E E E C a h M 3             ",
"          k k h h C E E ' ' ' A s F F z k C E E ' ' ' A h N B g M 3 1 Z ' E ' ' C h 3 M M           ",
"          k h h C ' ' ' ' ' ' A s B Y c z s Z E ' ' ' C g N g i 3 3 3 A ' ' ' ' E C M 3 M           ",
"        k h y C ' ' E ' ' ' ' Z s B Y c x z s C A Z C k N B p < $ 3 y C E ' E ' E E A 3 h h         ",
"      k k h s A ' ' ' E ' ' ' A s B F c c c z s u y g N N g 3 $ X 1 3 h A ' ' ' E ' A h h k k       ",
"      k h a C ' ' ' ' ' ' ' ' Z s N m v V I Y V V V V V g p i , # 1 3 h A ' ' ' E E E C y k k       ",
"    k k h s A ' ' E ' ' E A A C s F Y T T U T U U T T I g p 3 $ $ 1 y 3 A ' ' E E ' E A y h y M     ",
"    k h y C ' ' ' ' ' E C h u h B T R ( T T U U R [ ` U I N g 2 3 3 h y Z ' ' ' ' E E E Z 3 h h     ",
"  k k k s A ' ' ' ' ' A h N V V T ` { [ T T T R ` { { ` R Y V g g g N N h A ' ' ' ' ' ' Z y M h k   ",
"  k k s C E ' ' ' ' ' C h V U T 3.P L ` T T T ` { { { { ` T Y I V V U B u A ' ' ' ' ' ' E C 3 h k   ",
"  k h 3 Z ' ' ' ' ' A h N U U ) B.: % K T T R { 4.P K { ` R Y T U T T B k C U ' ' ' ' ' E Z 3 3 k   ",
"  k h s A ' ' ' ' ' Z u V R R ] B.: % K R R ` 0.V.: % S { { ` R U U U I N u E ' ' ' ' ' E C M M k   ",
"k k y C ' ' ' ' ' ' C h J z.t.! 3.L L ` R ` [ 0.C.; . > ^ 2.2.6.W W T U V h C ' ' ' ' ' ' ' Z 3 k k ",
"k k 3 Z ' ' ' ' ' A h F t.N.n.[ [ { { [ R [ { 0.V.: $ S 2.8.a.g.r.8.W I I M h A ' ' ' ' ' ' E 3 h k ",
"M 3 s A ' ' ' ' ' Z y F n.N.m.%.G K L _ [ { { { 9.^ P 2.w.d.s.d.s.r.R U U V y A ' ' ' ' ' ' A s h k ",
"h M 3 A ' ' ' ' ' Z s ! n.N.i.= O O & +.1.{ { 2.a.s.a.a.d.d.d.s.s.r.R U U V s A ' ' ' ' ' ' A 3 h k ",
"M 3 y Z ' ' ' ' ' A j e.M.N.#.@ . . @ @.:.:.3.8.s.d.d.d.d.d.d.d.h.p.W T T B s A ' ' ' ' ' ' E 3 k k ",
"M h y Z ' ' ' ' ' A j l.N.m.-.7 + + 0 -.:.@.:.d.d.d.s.d.d.d.d.d.h.s.q.R U V s A ' ' ' ' ' ' A s h k ",
"3 h y Z ' ' ' ' ' A k q.N.m.;.w 5 6 } @.| 4 *.d.d.d.d.d.d.d.d.d.s.s.6.W U N h A ' ' ' ' ' ' A 3 h k ",
"M 3 y Z ' E ' ' ' ' C n l.m.,. .* + @ @ - | -.>.d.d.d.d.d.d.j.d.s.r.! U V h C U ' ' ' ' ' ' A y h k ",
"k h y Z ' ' ' ' ' ' A j k.N.,.=.q 7 9 9 q =.:.:.d.d.d.d.d.k.x.k.f.e.W U C u Z E ' ' ' ' ' ' A y k k ",
"k k y C ' ' ' ' ' ' A j y.M.m.,.*.e *.=.-.;.>.h.d.d.d.k.k.x.k.d.s.8.W U C h C E ' ' ' ' ' ' C y h l ",
"  M h a A ' ' ' ' ' ' C n l.N.x.,.;.:.>.h.h.d.d.d.k.k.x.x.k.d.d.e.! U U I N h Z ' ' ' ' ' A h h k   ",
"  h k y Z ' ' E ' ' ' A j s.N.N.N.x.h.h.d.d.j.k.x.N.N.M.k.d.d.d.8.R U U U V h Z ' ' ' ' ' E 3 h k   ",
"  h h 3 C E E E E E E Z 3 X.g.b.n.M.m.g.f.k.m.m.M.M.N.b.s.q.r.8.W U U W 6.W N h C ' ' ' ' C u h k   ",
"  M 3 M h A E E E E E C M O.O.O.b.M.M.N.m.M.M.M.b.b.g.O.7.] ! W T W ! q.s.W U N h Z ' ' A s h k k   ",
"    M 3 3 Z E E E E E M M ,.y.X.o.k.b.b.b.m.b.k.O.X.O.o.i.q.8.! W 8.r.s.s.8.R V u Z ' ' C u h k     ",
"    f M h h A E E ' A M %.g.i.o...X.X.o.X.X.o.X.X.X.q.i.f.f.f.i.p.s.k.s.s.r.! N h C ' Z s h k k     ",
"      k k 3 C E ' ' Z j h.k.h.,.X...........X.X.i.i.f.h.h.f.f.h.h.k.m.m.k.j.6.W N h A C y h k       ",
"      M f M h A ' ' Z d i.k.g.y.X.........o.&.i.f.f.f.h.h.f.h.j.k.m.N.N.m.t.~ U V y C s h k k       ",
"        h k 3 C ' E M b g.k.g.i.o.........o.d.d.f.f.f.f.f.j.k.b.N.N.N.n.z.~ T T V u M y h k         ",
"          k M 3 C Z M y.m.g.i.h.,.X.....X.q.s.j.f.f.f.j.k.m.N.N.N.N.n.) R T U U V t a h k           ",
"          k k h h M M h.b.k.h.h.i.X...X.,.f.f.f.h.g.k.m.m.N.M.N.M.M.n.W U U U U N y h k k           ",
"            k k h j %.b.M.b.h.h.i.o.o.q.f.f.j.f.k.m.N.m.M.M.N.N.M.M.t.W U U U N u h k k             ",
"              k M a b q.g.b.k.h.d.i.i.f.f.f.f.k.m.N.M.M.M.M.M.M.M.n.( U U V N p h k k               ",
"                3 M f d n q.u.h.j.f.f.f.f.f.k.m.N.N.M.M.M.m.M.M.M.n.Q V N y a h k k                 ",
"                  M h f j d b $.>.f.f.f.s.j.m.m.N.M.N.M.N.N.M.M.m.e.D s s h h k k                   ",
"                      M k h h d j %.7.7.s.k.N.M.M.M.M.M.M.N.l.k.q.l a h h k k                       ",
"                        h M M y h d d j %.&.g.g.g.k.g.g.g.q.n d d h h k k k                         ",
"                            h j l h h h d d d f f d d d d d h h h k k k                             ",
"                                k k k k h h h h h h k h h h k k k k                                 ",
"                                        k k k k k k k k k k                                         "
};
