/* XPM */
static char *apzfv_48h37[] = {
/* columns rows colors chars-per-pixel */
"50 50 167 2 ",
"   c None",
".  c #231304",
"X  c #291602",
"o  c #2E1904",
"O  c #2D1B09",
"+  c #341B02",
"@  c #3A1F04",
"#  c #341E08",
"$  c #3D2003",
"%  c #36220E",
"&  c #3E2309",
"*  c #2D2216",
"=  c #24211E",
"-  c #2F271F",
";  c #352413",
":  c #34271A",
">  c #372B1F",
",  c #282522",
"<  c #332E27",
"1  c #332E29",
"2  c #3E3022",
"3  c #35302B",
"4  c #3E362E",
"5  c #363433",
"6  c #393633",
"7  c #3B3936",
"8  c #3C3C3C",
"9  c #432303",
"0  c #4B2602",
"q  c #4F2802",
"w  c #422509",
"e  c #462A0E",
"r  c #4F2B09",
"t  c #502700",
"y  c #532901",
"u  c #592C00",
"i  c #532D08",
"p  c #442C15",
"a  c #402C18",
"s  c #43311F",
"d  c #4E341A",
"f  c #51361B",
"g  c #52381F",
"h  c #423324",
"j  c #4C3722",
"k  c #4F3A24",
"l  c #42382E",
"z  c #4C3A28",
"x  c #543C24",
"c  c #583F26",
"v  c #413830",
"b  c #423E3A",
"n  c #43403D",
"m  c #4A453F",
"M  c #534230",
"N  c #3A3E42",
"B  c #444444",
"V  c #4B4947",
"C  c #414649",
"Z  c #44494D",
"A  c #4B4C4D",
"S  c #504D4A",
"D  c #474D52",
"F  c #4C4F51",
"G  c #4D5154",
"H  c #4E555B",
"J  c #525353",
"K  c #53575A",
"L  c #53595D",
"P  c #585959",
"I  c #545D63",
"U  c #585F65",
"Y  c #576067",
"T  c #586067",
"R  c #576068",
"E  c #5B646B",
"W  c #5E686F",
"Q  c #5D6770",
"!  c #5F6870",
"~  c #5E6871",
"^  c #5F6971",
"/  c #5E6870",
"(  c #5F6972",
")  c #5F6A72",
"_  c #5F6971",
"`  c #606870",
"'  c #616970",
"]  c #606971",
"[  c #606A72",
"{  c #616B72",
"}  c #606A73",
"|  c #626B72",
" . c #626B73",
".. c #636B73",
"X. c #626C73",
"o. c #616B74",
"O. c #626C74",
"+. c #626C75",
"@. c #626D75",
"#. c #626D76",
"$. c #636D76",
"%. c #636E76",
"&. c #626E77",
"*. c #636E77",
"=. c #646D75",
"-. c #656E76",
";. c #626C74",
":. c #636F78",
">. c #636F79",
",. c #656F79",
"<. c #646F78",
"1. c #646F78",
"2. c #647079",
"3. c #657079",
"4. c #667078",
"5. c #677078",
"6. c #677179",
"7. c #65707A",
"8. c #65717A",
"9. c #65717B",
"0. c #66717A",
"q. c #67717A",
"w. c #66727B",
"e. c #67727B",
"r. c #66727C",
"t. c #67737D",
"y. c #66717A",
"u. c #687179",
"i. c #68727B",
"p. c #69727B",
"a. c #68737C",
"s. c #69737C",
"d. c #68737D",
"f. c #6A737C",
"g. c #69747D",
"h. c #6A747C",
"j. c #6A747D",
"k. c #68747E",
"l. c #69747E",
"z. c #68757F",
"x. c #69757F",
"c. c #6A757E",
"v. c #69747D",
"b. c #6A7680",
"n. c #6A7681",
"m. c #6A7781",
"M. c #6B7781",
"N. c #697782",
"B. c #6A7782",
"V. c #6B7782",
"C. c #6A7781",
"Z. c #6B7882",
"A. c #6B7883",
"S. c #6C7882",
"D. c #6C7883",
"F. c #6C7983",
"G. c #6C7984",
"H. c #6D7984",
"J. c #6C7985",
"K. c #6D7A84",
"L. c #6D7A85",
"P. c #6D7A86",
"I. c #6D7B86",
"U. c #6C7984",
"Y. c #727C85",
"T. c #707D88",
"R. c #75818B",
/* pixels */
"                                                                                                    ",
"                                                                                                    ",
"                                            p.R.Y.-.X.                                              ",
"                                        4.F.F.F.P.F.Z.W E                                           ",
"                                    E E Z.A.Z.N.A.A.A.U U U W                                       ",
"                                  E F.&.>.Z.Z.F.A.r.r.E F.l.E W                                     ",
"                              H r.W E E I N.P.N.E Q I o.P.A.Z.W L -.                                ",
"                            H U &.W k.l.H H L C N U I N.A.A.l.I L E p.                              ",
"                            N.l.L U F.U < O + o + O * A 0.Z.U R P.W W                               ",
"                          >.P.P.r.U V % @ @ 9 @ 0 9 9 + 4 H I &.( Q U ,.                            ",
"                        U A.A.A.N.8 + @ @ 0 y y u y u y 9 ; U Z.>.&.r.( l.                          ",
"                        H &.A.P.J # @ 9 0 y u y u y u y y y h >.2.R R G -.                          ",
"                      L r.W E Y : @ $ y y y u y u y y y y u 0 m U G ( ,...c.                        ",
"                      ( Z.Z.0.6 + $ 0 y y y u 0 u y y y y u y w H N.N.Z.[ p.                        ",
"                      ( N.P.0.> @ 0 y y y y u y u y y y y u y y V P.F.s.` p.                        ",
"                      Y 0.P.E % @ y y y y y u y u y y y y y y u l N.F.[ Y =.                        ",
"                      Y E l.H + @ u y u y y u y u y u y y u y u a o.0.Y E [                         ",
"                    I E [ F.J + @ u y y y y u y y y u y y y y u f p.N.l.[ [ h.                      ",
"                    0.N.&.F.P @ 9 u y u y y u y u y u y y u y u c l.S.P.' ..s.                      ",
"                    0.F.0.W A + 9 y 0 y y 0 u 0 y 0 y t t y t y x N.P.F.[ [ s.                      ",
"                    0.F.>.r.K - < l v v v 6 v v v v v v v v v v b s.P.P.-.=.s.                      ",
"                    E 0.I W K 7 B K F F J F F F K F F F F F F F D Q &.&.E [ p.                      ",
"                      [ ( &.G , 5 8 8 8 8 8 8 8 N 8 8 7 N 8 B 7 8 E [ [ U W c.                      ",
"                      N.P.I.J O # w & w w & w & w @ 9 w & w & w z S.S.P.-.o.c.                      ",
"                      U E E V @ 9 u y u y y u y u y u y y u y y d U E Y L [ c.                      ",
"                      l.N.A.J % 9 u y u y y u t u y u y y u y u x l.0.[ [ [ c.                      ",
"                      [ >.>.A $ 9 u y y y y u y u y u y y y y u g Y Y W I [ p.                      ",
"                    I &.>.9.A $ 9 u y u y y u y u y u y y y y u d E E W G o.                        ",
"                    r.P.L.L.K @ 9 u y u y y u y u y u y y i i u x p.[ [ E -.                        ",
"                    ,.P.L.L.J @ 9 u y u u y u y u y u u p S V e d H I I D ,.                        ",
"                    E L.S.L.P @ 9 u t u y y u y u y u i l h h s x r.N.l.U &.                        ",
"                    I ,.,.,.F @ 9 u t u u y u t u y i i c t t k k -.0.0.L &.                        ",
"                      W [ o.V + 9 u y u u t u y u y y y z k j k f ` s.,.U [                         ",
"                      F.P.P.K $ 9 u y u u t y y u y y y t f f y c L.T.P.,.-.s.                      ",
"                      F.A.A.J @ 9 u t u y t y i u y u y y y y y c b.L.S.5.-.h.                      ",
"                      l.A.P.P + @ 0 0 t 0 0 0 0 y 0 0 9 0 y 0 t k N.L.L.5.-.c.                      ",
"                      &.k.k.L 1 6 b b b b b b b b b b b b b b b V ,.E ,.o.o.c.                      ",
"                      I I I C 5 B G F F F F F A K F J F F F F F Z E E ` I `                         ",
"                    &.P.A.A.L = 3 5 6 7 6 7 6 7 6 6 7 5 8 6 8 6 C L.T.P.E =.                        ",
"                    I 0.2.>.A o # 0 0 w 0 9 0 9 0 $ 0 9 9 0 9 0 k S.L.L.E =.                        ",
"                    Y l.&.&.J + 9 u y u u y u y u y u u y u y u c N.P.P.E ..                        ",
"                    &.) ( ( A @ 9 u y u u y u y u y u y y u y u c r.( s.E =.                        ",
"                    G U ) E B @ 9 u y y y y u y u y u y y u y y d U L E K ..                        ",
"                    2.P.T.P.P $ 9 u y u u y u y u y u y y u y u c N.S.F.-...h.                      ",
"                    0.Z.A.P.P $ 9 u y u y y u y u y u y y u y y j -.-.-.E [ c.                      ",
"                    0.A.P.I.P % 9 u y u y y u y u y u y y y y u x -.l.s.' [ h.                      ",
"                    0.N.) Z.J $ 9 y y y y y y y u y u y 0 u y u c N.N.N.o.-.l.                      ",
"                      D N H 8 . X + + + + + + + + + + + + + + + ; Z Z Z C W                         ",
"                                                                                                    ",
"                                                                                                    "
};
