/* XPM */
static char *a0mp5_foldq[] = {
/* columns rows colors chars-per-pixel */
"50 50 139 2 ",
"   c None",
".  c black",
"X  c #3C2C17",
"o  c #5D1F0E",
"O  c #5F200F",
"+  c #5F2210",
"@  c #5D281C",
"#  c #62210F",
"$  c #612210",
"%  c #682612",
"&  c #6D2D15",
"*  c #702E16",
"=  c #6F3018",
"-  c #713117",
";  c #733318",
":  c #7C3C1C",
">  c #592920",
",  c #462D34",
"<  c #482D33",
"1  c #734F26",
"2  c #735027",
"3  c #3C3649",
"4  c #343852",
"5  c #223F74",
"6  c #4C355F",
"7  c #7C2647",
"8  c #772947",
"9  c #75284A",
"0  c #622D54",
"q  c #692C51",
"w  c #703A53",
"e  c #443563",
"r  c #443D66",
"t  c #0F447E",
"y  c #11447D",
"u  c #16497B",
"i  c #1B4C7A",
"p  c #284173",
"a  c #244E79",
"s  c #405772",
"d  c #405972",
"f  c #5A646C",
"g  c #6D6D67",
"h  c #61676A",
"j  c #63686A",
"k  c #910203",
"l  c #BA0F09",
"z  c #AB150D",
"x  c #BB100A",
"c  c #813E1E",
"v  c #9E1F34",
"b  c #AA2030",
"n  c #DE0A15",
"m  c #D50E1A",
"M  c #D1101C",
"N  c #EB090F",
"B  c #FF0305",
"V  c #FE0708",
"C  c #FD0B0A",
"Z  c #F4040A",
"A  c #FD130C",
"S  c #C32414",
"D  c #D52915",
"F  c #EF2619",
"G  c #FB2514",
"H  c #F93019",
"J  c #F73E1F",
"K  c #DB2922",
"L  c #854321",
"P  c #894721",
"I  c #8B4A23",
"U  c #8D592B",
"Y  c #955027",
"T  c #9D5B2A",
"R  c #916630",
"E  c #A6632E",
"W  c #A8642E",
"Q  c #AA6730",
"!  c #AB6830",
"~  c #BC7837",
"^  c #BD7738",
"/  c #B67134",
"(  c #F54723",
")  c #F64823",
"_  c #F3572B",
"`  c #F16732",
"'  c #F16832",
"]  c #EF7237",
"[  c #EE7B3A",
"{  c #852542",
"}  c #882441",
"|  c #873448",
" . c #8F7B44",
".. c #7A994E",
"X. c #60815C",
"o. c #799550",
"O. c #739451",
"+. c #A6B73D",
"@. c #A5BB3B",
"#. c #C6813C",
"$. c #CD883F",
"%. c #CB843E",
"&. c #ABC138",
"*. c #BACC31",
"=. c #FFFF11",
"-. c #C9D72A",
";. c #8F8944",
":. c #98805F",
">. c #A0835B",
",. c #BC8F55",
"<. c #BE9056",
"1. c #87A347",
"2. c #92AC43",
"3. c #99B440",
"4. c #CD8E4E",
"5. c #D58F42",
"6. c #D69042",
"7. c #DA9444",
"8. c #DE9846",
"9. c #D4994F",
"0. c #DF9E4D",
"q. c #D8924B",
"w. c #CB9551",
"e. c #C69352",
"r. c #EC8C41",
"t. c #E39C47",
"y. c #EB9A46",
"u. c #E09649",
"i. c #E39E49",
"p. c #E99F49",
"a. c #EB9545",
"s. c #E6A049",
"d. c #EAA34A",
"f. c #EFA84C",
"g. c #074682",
"h. c #0B4580",
"j. c #094581",
"k. c #0C4580",
"l. c #0C4680",
/* pixels */
"                                                                                                    ",
"                                                                                                    ",
"                                                                                                    ",
"                                                                                                    ",
"                            B B B B B B B B B B B B B B B B C                                       ",
"                            B B B B B B B B B B B B B B B B C                                       ",
"                      V C V B B B B B B B B B B B B B B B B B B B V V V V C C V                     ",
"                      B B B B B B B B B B B B B B B B B B B B B B B B B B B B V                     ",
"                      x x x x x x l x l D ) ) ) ( ( ( z k k S ) ) J A C C C C C                     ",
"                      + O O O # # O # # T d.s.d.d.s.s.X . . 1 f.s.f.                                ",
"                      = * & $ $ # & ; ; W d.d.d.s.d.t.X . . 1 d.s.s.                                ",
"              $ $ $ P 5.q.#.& $ $ ! $.$.t.d.d.d.f.s.i.X . . 1 f.f.s.d.d.d.d.d.d.                    ",
"              # $ + P s.f.7.- + $ ~ f.f.f.d.d.d.s.f.t.X . . 1 f.d.d.d.d.d.d.d.s.                    ",
"              o $ + I s.s.6.- # $ I W E ~ d.d.d.s.s.t.R 1 2 U E W / s.d.d.s.d.s.d.                  ",
"              O $ O P s.f.7.- O # O O O T d.d.s.d.s.s.f.f.f.E o # : t.d.d.d.s.f.d.d.d.d.            ",
"              O $ + P q.7.$.: & & & & & W d.d.d.s.f.s.t.q.7.T $ # c $.u.7.7.7.q.t.d.d.d.            ",
"              + $ $ % ; * c 5.6.6.6.6.6.8.s.s.d.s.d.p.Y - ; & # $ % - - ; ; - ; P                   ",
"              + $ $ $ $ $ * 5.d.d.d.f.d.f.s.d.d.d.d.t.P o o o # + O O O + $ + $                     ",
"                          L i.d.s.d.s.d.d.d.d.s.d.d.s.~ ! ! W ! ! ! ! ! Q L                         ",
"                            d.d.d.d.d.d.d.d.d.d.d.d.d.d.d.d.d.f.d.f.d.d.d.                          ",
"                            r.r.r.7.w.w.q.r.r.r.r.r.r.r.r.r.y.s.d.d.d.d.d.                          ",
"                      V B V A A A w a a | A A A A A A A A A G                                       ",
"                      B B B B B B 0 g.j.7 B B B B B B B B B B                                       ",
"                C C C B B B B B B 0 j.j.7 B B B B B B v 8 8 b C A C C C A C C C                     ",
"              V V B B B B B B B Z 0 t g.7 B B B B B Z 6 t g.{ B B B B B B B B B                     ",
"              B B B B B B B B B B 0 g.t q m M M m m M 6 t g.7 B B B B B B B B B B                   ",
"        V B B B B B B B B B B B B 0 t t 5 5 5 5 p 5 5 t t t } B B B B B B B B B B B B B             ",
"        V B B B B B B B B B B B Z 0 t t t t t t t t t t t t { B B B B B B B B B B B B B             ",
"        ` ' ` ` ' ] ( B B N 8 0 0 ;.@.@.X.t t t t t u O.@.@. .0 0 { V B A _ ' ' ' ' ' '             ",
"        d.d.d.d.d.f.] B B n p t t &.=.=.2.t t t t t u *.=.=.3.t g.e Z B C r.d.d.d.d.d.f.            ",
"        d.d.d.d.d.d.[ G G D p t t 1.-.-.O.t t t t t u 2.-.-...t j.r F G H r.d.d.d.s.d.d.            ",
"        d.d.s.d.s.d.s.y.y.4.a t t i i i u t t t t t t u i i u t t s u.y.t.d.s.d.d.d.d.d.            ",
"        d.d.d.d.d.d.f.d.f.e.k.k.t t t t t t t t t t t t t t t t t a p.p.d.d.p.s.d.s.d.d.            ",
"        d.d.p.s.d.d.<.g h f k.k.y y t t y t t t t y t t y t t t t a f g g 9.d.d.d.d.d.d.            ",
"        d.d.d.d.d.d.>.l.y k.k.k.y y y y t t t y t y t t t t t t t t t t i e.s.d.d.d.d.d.            ",
"        d.d.d.d.d.d. .l.y p k.k.y y y k.t t t t t t t t t t y y t t t t a ,.f.d.d.d.d.d.            ",
"                      y y y y y k.k.y y l.            k.k.k.y y t t t t y                           ",
"                      y y y y y u k.k.y l.            k.k.k.y u y t t t u                           ",
"                % % > < , , , , < 4                         6 < < < < < < @ $ %                     ",
"              + $ $ $ # # $ $ % %                           % # O # # # # # $ $                     ",
"              $ $ $ $ $ $ $ $ $ $                           % $ $ $ $ $ $ $ $ $ %                   ",
"        $ $ $ $ + $ $ $ $ $ $ + $                           % $ # $ $ $ $ $ $ $ $ $ $ $             ",
"        $ $ $ $ $ $ $ $ $ $ $ $ $                             $ $ $ $ $ $ $ $ $ $ $ $ $             ",
"                                                                                                    ",
"                                                                                                    ",
"                                                                                                    ",
"                                                                                                    ",
"                                                                                                    ",
"                                                                                                    ",
"                                                                                                    "
};
