/* XPM */
static char *ar8cf_72e03[] = {
/* columns rows colors chars-per-pixel */
"50 50 27 1 ",
"  c #1C1C1C",
". c #1E1E1E",
"X c #222222",
"o c #272727",
"O c #292929",
"+ c #2C2C2C",
"@ c #303030",
"# c #373737",
"$ c #383838",
"% c #3C3C3C",
"& c #434343",
"* c #444444",
"= c #4A4A4A",
"- c #4E4E4E",
"; c #515151",
": c #575757",
"> c #585858",
", c #5C5C5C",
"< c #616161",
"1 c #656565",
"2 c #6B6B6B",
"3 c #6E6E6E",
"4 c #777777",
"5 c #7E7E7E",
"6 c #828282",
"7 c #8E8E8E",
"8 c #919191",
/* pixels */
"#<::::&@+@@@o:>:::;#@@@@o:>:::;#+@@@o:,::::&+@@@@.",
"<81<<<,:::>>%74<<<<:::::%74<<<<:::>:%74<<<<>::::>@",
":1:;:;:::::;$3::::::;:::&4::::::::::&3:;:::::::::+",
";<:::::::::;#1:::;:::::;@1;::;:::::;@2::::::::::;o",
"#::::::::::;O-:;:::::::;O-:::;:::::;o-::;:::::::;X",
"@:::::;-;;-%o=:::::;;--&o=:>:::;;;-%X=:::::;;;;;%.",
"o##@##+@@##+o+##@#O@@@#+o+#@@#@+@#@+o@####@O@#@@@o",
">=====$652222-====$653222-=-=-%:73322-====%:832222",
"::::::&5<:::::::::%5,:::::::::=>4::::::::>=,4:::::",
":::::;$2::::::;:::$2:::;::::::&:<::::;;:::*;<;::::",
"::;::;@1::;::::::;@2:::::;::::$-<:;:::::::$-<:::::",
":::::=O-:::::::::=o-:::::::::;##>:::::::>;##>:::::",
"%$%%$@.&====*%%%$@.&====*%%%%#oO====*%%%%#oO=====&",
"#,;;;;=#@##@O;:;;;-##@##O;>;;;-&#@##O;>;;;-&##@##.",
"<81<1<<:>:::&74<<<,>::::&74<<<<,::::&74,<<<,;::::@",
">1::::::::::%3::::::::::%3:;::::::::%3:::::::::::+",
":<:::::::::;#2:::::::::;#2::::;::::;#2;::::;::::;X",
"&,;:;::::::;O>:::::;:::-+>:;:::::::-+>:::::::>::;.",
"@>:::::;;;-%X=:::::;;;-&o=:::::;;;;%X=:::::;;;;;&.",
"o##@##++#@#+O####$@O@#@+o#####@O#@#+O#####@O@@#@OX",
">=====$652222>====&;73222>====%:73223>====&;732242",
":::::>&5<:::::>:::=,4::;::::::=,4:::::::::=,4:::;:",
";::::;$2::;::;::::&;<:::::::::*;<:::::::::&;<::;::",
":::::;@1::::::::::%-<::::::::>%-<;:::;::::%-<:::::",
":::::=O;:::::::>:;##>:::::::>;##::::::>:>;##>:::::",
"%$%%$@.&====*$%%%#oO====*$%%%#oO=====%%%%#XO-====&",
"$,:;;;-&###@O-:;;;-@##@#o-:;;;=###@#+#,;;;;&##$@#X",
"<81<<<1>::::&74<<<<:::::&74<<<<:::::=<81<<<,;::::O",
":1;:::::::::%3:;::::::::%3:::::;::::=:1:::::::;::+",
":<::::;::::-#2:::::;:::-#2:;::::::::%;<:::::::::;O",
"&>::;:::::>;+>::::::::>;+>:::::::::>$&>:::;:::::;X",
"@>:::::;;;;%X-:::::;;;;%X-:::::;;;;=+@:::::;;;;;%.",
"O#####O+#@@@O#####@O#@@@o@####@O#@#@OO###@@+#@#@@O",
">=====#653223>*===%:73221-====&;73222>====%:732322",
"::::::&5<:::::::::=,4:::::::::=,4::::::::>=,4:::;:",
"::;::;$2::;:::::::&;<:::::::::*;<;::::::::&;<;::::",
":::::;#2::;::::;::%;<::::;::::$;<:::::::::%-<:::::",
":::>:=O>::::::::>;#&,::>::>>>;#&,::::::::;#&,>::::",
"$%%%$@.&====*%%%%#oO=====%%%%#oO-====*%%%#oO=====*",
"#,;;;;-#####O;:;;;;%##@#+#,;;;-&#@##@O;:;;-&#@##$X",
"<81<<<<:::::&74<<<<,::::=,81<<<,;::::&74<<<,:::::+",
":1:::::::;:;$3:::;::::::*:1:::::::::;$3::::;:::::O",
":<;::::::::;@2::::::::::%;<:::::::::;#3::::::;::;X",
"&,:::::>:::=+>:::::::::;#&>::::>::::=O>:::::::::=X",
"O=====&$%%%@X&====*&%%$#oO====*%$%%%+.&====%$$%%+.",
"%#####o;>;;;=$####+$,;;;-&@###@#,;;;;-####@#,:;;;-",
">:::::%74<<<<:::::=,81<<<,::::=,81<1<<::::=,81<1<<",
":::::;#3::;::::;:>%:1::::::::>%;1;::;:::::%:1;:::;",
":::::=+2::;::::::;#-,:::;::::;#-<::::;:::;#-,:::::",
"***=*#o-::::-*=*=%O#>::::-*==%O#>::::-=*=%O#>::::-"
};
