/* XPM */
static char *ajng0_r621n[] = {
/* columns rows colors chars-per-pixel */
"43 58 152 2 ",
"   c None",
".  c #030201",
"X  c #140000",
"o  c #1E0403",
"O  c #5D1F0E",
"+  c #6E1D0E",
"@  c #701F0F",
"#  c #5F200F",
"$  c #4E361A",
"%  c #543A1C",
"&  c #62210E",
"*  c #612210",
"=  c #652815",
"-  c #6D2C15",
";  c #60291B",
":  c #702F17",
">  c #722212",
",  c #743419",
"<  c #7B3A1C",
"1  c #713117",
"2  c #452F38",
"3  c #42313C",
"4  c #703F20",
"5  c #614522",
"6  c #3D3141",
"7  c #39354A",
"8  c #1D3D76",
"9  c #193E79",
"0  c #2E3C6E",
"q  c #333A6C",
"w  c #3B3868",
"e  c #203F75",
"r  c #4C355D",
"t  c #5A3058",
"y  c #6F2A4E",
"u  c #712B4C",
"i  c #612D54",
"p  c #453760",
"a  c #0F447E",
"s  c #1F4076",
"d  c #12457D",
"f  c #16497B",
"g  c #1D4A7B",
"h  c #1C4178",
"j  c #2B4F77",
"k  c #254576",
"l  c #2A5375",
"z  c #2E5B71",
"x  c #2B5078",
"c  c #3A5774",
"v  c #355576",
"b  c #3B666B",
"n  c #3D686A",
"m  c #637B59",
"M  c #465C71",
"N  c #456165",
"B  c #416469",
"V  c #57666E",
"C  c #4A7264",
"Z  c #666266",
"A  c #813E1E",
"S  c #BD1526",
"D  c #962138",
"F  c #B5202B",
"G  c #A72B33",
"H  c #DA0304",
"J  c #D30E1B",
"K  c #E70706",
"L  c #E80706",
"P  c #E70A09",
"I  c #EB0C0B",
"U  c #FF0305",
"Y  c #FF0907",
"T  c #F50609",
"R  c #FE0708",
"E  c #FE0909",
"W  c #FC1A0F",
"Q  c #F2140C",
"!  c #E50912",
"~  c #E90910",
"^  c #FB1F12",
"/  c #FB2113",
"(  c #FB2A16",
")  c #F92B18",
"_  c #F73A1D",
"`  c #F9381C",
"'  c #C11925",
"]  c #DF2F23",
"[  c #D03129",
"{  c #83401F",
"}  c #844321",
"|  c #8E4D23",
" . c #954B22",
".. c #985627",
"X. c #9C572A",
"o. c #9C592A",
"O. c #975426",
"+. c #A25F2C",
"@. c #976530",
"#. c #A5642F",
"$. c #AE6A32",
"%. c #B16D32",
"&. c #AA7638",
"*. c #AA7537",
"=. c #B47033",
"-. c #BB7636",
";. c #BE7938",
":. c #DB422B",
">. c #F64723",
",. c #C37E3A",
"<. c #F16832",
"1. c #915651",
"2. c #917C5F",
"3. c #887861",
"4. c #5E845B",
"5. c #6F9052",
"6. c #A9BE39",
"7. c #C6813C",
"8. c #CA843D",
"9. c #BECF2F",
"0. c #BFD02E",
"q. c #AFC335",
"w. c #BACC31",
"e. c #E7ED1E",
"r. c #ECF31B",
"t. c #FDFF13",
"y. c #DBE423",
"u. c #809D4B",
"i. c #A2835B",
"p. c #B08958",
"a. c #B48B57",
"s. c #89A348",
"d. c #93AC42",
"f. c #9DB340",
"g. c #D48D41",
"h. c #DB9444",
"j. c #DB9C4D",
"k. c #D4944B",
"l. c #C38D51",
"z. c #C59353",
"x. c #DF9F50",
"c. c #D19852",
"v. c #EC8E42",
"b. c #EB9545",
"n. c #E19B47",
"m. c #EB9A46",
"M. c #E39E4A",
"N. c #EA9D48",
"B. c #E6A04A",
"V. c #EAA34A",
"C. c #064582",
"Z. c #0A4480",
/* pixels */
"                                                                                      ",
"                                                                                      ",
"                                                                                      ",
"                                                                                      ",
"                        U U U U R U U U R U U U U U                                   ",
"                        U U U U U U U U U U R U U R                                   ",
"                        Y U U U U U R U U U U U U U                                   ",
"                  E Y Y U U U U U U U U U U U U U U R R Y Y R Y Y Y Y                 ",
"                  R U U U U U U U U U U U U U U U R U U U U U U U U U                 ",
"                  P K K K K L K K I W W W W W I H H Q W W Y R R Y R R                 ",
"                  > @ @ > + @ @ +  .b.b.b.b.m.5 X o %.b.b.                            ",
"                  * # # # * * # O  .B.V.V.N.V.5 . . *.V.V.                            ",
"                  } } < = & * { < #.V.V.V.V.V.5 . . -.V.V.                            ",
"            * * = ;.V.h., O < h.M.M.V.V.V.V.V.5 . . &.V.V.V.V.V.V.V.V.                ",
"            # & = ,.V.h., O < n.V.V.V.V.B.V.B.5 . . &.V.V.V.V.V.V.V.V.                ",
"            # * * 7.V.h., & : =.-.8.V.V.V.V.B.@.% % @.-.,.h.V.V.V.V.V.                ",
"            O * = 8.V.h., # * & & O.V.V.V.V.V.V.V.N.{ * - 8.V.V.V.V.V.V.V.V.          ",
"            # & * 8.V.h.1 O & O O { V.V.V.V.V.V.V.B.{ # - 8.V.V.V.V.V.V.V.V.          ",
"            # * * +.%.$.o.......O.=.V.V.V.V.V.8.$.$., & = #.;.=.%.$.-.B.V.            ",
"            # * * * * - h.V.V.V.V.V.V.V.V.V.V...# & & & & * * * # * *                 ",
"            * * * * & - g.V.V.V.V.V.B.V.V.V.V...# # # * & # # # * * *                 ",
"                        n.V.V.V.V.B.N.V.B.V.V.7.%.%.=.=.=.%.=.$.                      ",
"                        V.V.V.V.V.V.V.V.V.V.V.V.V.V.V.V.V.V.V.V.                      ",
"                        V.V.N.B.B.V.V.V.V.V.V.N.V.V.V.V.V.V.V.V.                      ",
"                    U E _ _ :.Z V 1._ _ _ _ _ _ _ _ <.                                ",
"                  Y U U U U J 8 C.i U U U U U U U U                                   ",
"                  Y U U U U J e a i U U U U U U T I                                   ",
"              Y E U U U U U J e C.i U U U U U D r r ' Y E E E E Y Y Y                 ",
"            U U U U U U U U J e a t U U U U U u a d S U U U U U U U U                 ",
"            U U U U U U U U J e C.t ~ P ~ P ~ y a d S U U U U U U U U                 ",
"        U U U U U U U U U U J 8 a 9 q q 0 q 0 9 a d S U U U U U U U U U U U           ",
"        U U U U U U U U U U J 8 Z.Z.a Z.a a a a a 9 S U U Y U U U U U U U U           ",
"        / / / / / Y U U J J S n n z d a a d a l n n G J J T U Y ^ / / / / /           ",
"        m.b.b.m.b.) U ! w 9 b y.r.f.a a a a Z.s.r.e.m 9 q J U W v.m.m.b.m.m.          ",
"        V.V.V.V.N.) U ! 0 a b r.t.q.d a a a 9 d.t.t.4.Z.e J U W m.V.B.V.V.V.          ",
"        B.V.V.V.N.>.) ] e a z q.0.5.d a a a C.5.9.w.C Z.k [ ( >.m.V.V.V.V.V.          ",
"        V.V.B.V.V.N.V.k.j a d f f f a a d a Z.f f f d a g l.N.N.B.V.B.V.V.V.          ",
"        V.V.V.V.V.V.V.c.j a a a a a a a a a d d C.9 a a g z.V.V.V.V.V.V.V.V.          ",
"        V.V.V.V.V.a.i.2.k a a a Z.d Z.Z.a a d d a a a a f 3.i.p.B.B.V.V.V.V.          ",
"        V.B.V.V.M.M a a a a a a d d d Z.9 a Z.d a a a a d d a c j.V.V.V.V.V.          ",
"        V.V.V.V.M.M Z.a a a a a d d d d d Z.f Z.a a a a a a a v x.V.V.V.V.V.          ",
"        V.V.V.V.x.v a a a d a a Z.d Z.d d d d d a a a d a a a j c.V.V.V.V.            ",
"                  d a a d a a a f Z.          Z.a d a a a a a f                       ",
"                  a Z.d a a a a Z.f           Z.a a a d Z.a a f                       ",
"              = = 2 6 6 6 6 7                       7 6 6 6 6 3 ; =                   ",
"            # * * & & & & & &                       * & & & & & * * *                 ",
"            # * * * * & * * *                       * * * * * * * * *                 ",
"        * = * * & * * * * * *                       * * * # & * * * * = =             ",
"        = * * * * * * * * * *                       = * * * * * # * * * * *           ",
"        * * * * * * * * * * *                       * * * * * * * * * * * #           ",
"                                                                                      ",
"                                                                                      ",
"                                                                                      ",
"                                                                                      ",
"                                                                                      ",
"                                                                                      ",
"                                                                                      ",
"                                                                                      "
};
